<svg xmlns="http://www.w3.org/2000/svg" xmlns:xlink="http://www.w3.org/1999/xlink" width="2000" zoomAndPan="magnify" viewBox="0 0 1500 1499.999933" height="2000" preserveAspectRatio="xMidYMid meet" version="1.0"><defs><filter x="0%" y="0%" width="100%" height="100%" id="7d8ac5689d"><feColorMatrix values="0 0 0 0 1 0 0 0 0 1 0 0 0 0 1 0 0 0 1 0" color-interpolation-filters="sRGB"/></filter><g/><clipPath id="4861ea0156"><path d="M 486 418 L 933 418 L 933 911.054688 L 486 911.054688 Z M 486 418 " clip-rule="nonzero"/></clipPath><mask id="2b621cc714"><g filter="url(#7d8ac5689d)"><rect x="-150" width="1800" fill="#000000" y="-149.999993" height="1799.99992" fill-opacity="0.8"/></g></mask><clipPath id="34e0c1d06a"><path d="M 0 0.078125 L 1500 0.078125 L 1500 908 L 0 908 Z M 0 0.078125 " clip-rule="nonzero"/></clipPath><clipPath id="e339ebc2ef"><path d="M 0 3.296875 L 1500 3.296875 L 1500 908 L 0 908 Z M 0 3.296875 " clip-rule="nonzero"/></clipPath><clipPath id="34bb5b9c3b"><path d="M 0 0.296875 L 1500 0.296875 L 1500 905 L 0 905 Z M 0 0.296875 " clip-rule="nonzero"/></clipPath><clipPath id="7b15ad5723"><path d="M 0.601562 33.296875 L 1482.582031 33.296875 L 1482.582031 905 L 0.601562 905 Z M 0.601562 33.296875 " clip-rule="nonzero"/></clipPath><linearGradient x1="-34.098999" gradientTransform="matrix(3.000375, 0, 0, 3.003412, 102.911897, 352.657358)" y1="40.5" x2="459.833011" gradientUnits="userSpaceOnUse" y2="40.5" id="f7005933f1"><stop stop-opacity="1" stop-color="rgb(100%, 19.219971%, 19.219971%)" offset="0"/><stop stop-opacity="1" stop-color="rgb(100%, 19.219971%, 19.219971%)" offset="0.125"/><stop stop-opacity="1" stop-color="rgb(100%, 19.219971%, 19.219971%)" offset="0.1875"/><stop stop-opacity="1" stop-color="rgb(100%, 19.219971%, 19.219971%)" offset="0.21875"/><stop stop-opacity="1" stop-color="rgb(100%, 19.219971%, 19.219971%)" offset="0.234375"/><stop stop-opacity="1" stop-color="rgb(100%, 19.386292%, 19.267273%)" offset="0.242188"/><stop stop-opacity="1" stop-color="rgb(100%, 19.831848%, 19.396973%)" offset="0.246094"/><stop stop-opacity="1" stop-color="rgb(100%, 20.11261%, 19.47937%)" offset="0.25"/><stop stop-opacity="1" stop-color="rgb(100%, 20.391846%, 19.560242%)" offset="0.253906"/><stop stop-opacity="1" stop-color="rgb(100%, 20.672607%, 19.642639%)" offset="0.257812"/><stop stop-opacity="1" stop-color="rgb(100%, 20.951843%, 19.723511%)" offset="0.261719"/><stop stop-opacity="1" stop-color="rgb(100%, 21.232605%, 19.805908%)" offset="0.265625"/><stop stop-opacity="1" stop-color="rgb(100%, 21.511841%, 19.888306%)" offset="0.269531"/><stop stop-opacity="1" stop-color="rgb(100%, 21.792603%, 19.970703%)" offset="0.273438"/><stop stop-opacity="1" stop-color="rgb(100%, 22.071838%, 20.051575%)" offset="0.277344"/><stop stop-opacity="1" stop-color="rgb(100%, 22.3526%, 20.133972%)" offset="0.28125"/><stop stop-opacity="1" stop-color="rgb(100%, 22.631836%, 20.214844%)" offset="0.285156"/><stop stop-opacity="1" stop-color="rgb(100%, 22.912598%, 20.297241%)" offset="0.289062"/><stop stop-opacity="1" stop-color="rgb(100%, 23.193359%, 20.378113%)" offset="0.292969"/><stop stop-opacity="1" stop-color="rgb(100%, 23.474121%, 20.46051%)" offset="0.296875"/><stop stop-opacity="1" stop-color="rgb(100%, 23.753357%, 20.541382%)" offset="0.300781"/><stop stop-opacity="1" stop-color="rgb(100%, 24.034119%, 20.623779%)" offset="0.304688"/><stop stop-opacity="1" stop-color="rgb(100%, 24.313354%, 20.704651%)" offset="0.308594"/><stop stop-opacity="1" stop-color="rgb(100%, 24.594116%, 20.787048%)" offset="0.3125"/><stop stop-opacity="1" stop-color="rgb(100%, 24.873352%, 20.86792%)" offset="0.316406"/><stop stop-opacity="1" stop-color="rgb(100%, 25.154114%, 20.950317%)" offset="0.320312"/><stop stop-opacity="1" stop-color="rgb(100%, 25.43335%, 21.031189%)" offset="0.324219"/><stop stop-opacity="1" stop-color="rgb(100%, 25.714111%, 21.113586%)" offset="0.328125"/><stop stop-opacity="1" stop-color="rgb(100%, 25.993347%, 21.194458%)" offset="0.332031"/><stop stop-opacity="1" stop-color="rgb(100%, 26.274109%, 21.276855%)" offset="0.335938"/><stop stop-opacity="1" stop-color="rgb(100%, 26.553345%, 21.357727%)" offset="0.339844"/><stop stop-opacity="1" stop-color="rgb(100%, 26.834106%, 21.440125%)" offset="0.34375"/><stop stop-opacity="1" stop-color="rgb(100%, 27.114868%, 21.522522%)" offset="0.347656"/><stop stop-opacity="1" stop-color="rgb(100%, 27.39563%, 21.604919%)" offset="0.351562"/><stop stop-opacity="1" stop-color="rgb(100%, 27.674866%, 21.685791%)" offset="0.355469"/><stop stop-opacity="1" stop-color="rgb(100%, 27.955627%, 21.768188%)" offset="0.359375"/><stop stop-opacity="1" stop-color="rgb(100%, 28.234863%, 21.84906%)" offset="0.363281"/><stop stop-opacity="1" stop-color="rgb(100%, 28.515625%, 21.931458%)" offset="0.367188"/><stop stop-opacity="1" stop-color="rgb(100%, 28.794861%, 22.012329%)" offset="0.371094"/><stop stop-opacity="1" stop-color="rgb(100%, 29.075623%, 22.094727%)" offset="0.375"/><stop stop-opacity="1" stop-color="rgb(100%, 29.354858%, 22.175598%)" offset="0.378906"/><stop stop-opacity="1" stop-color="rgb(100%, 29.63562%, 22.257996%)" offset="0.382813"/><stop stop-opacity="1" stop-color="rgb(100%, 29.914856%, 22.338867%)" offset="0.386719"/><stop stop-opacity="1" stop-color="rgb(100%, 30.195618%, 22.421265%)" offset="0.390625"/><stop stop-opacity="1" stop-color="rgb(100%, 30.474854%, 22.502136%)" offset="0.394531"/><stop stop-opacity="1" stop-color="rgb(100%, 30.755615%, 22.584534%)" offset="0.398438"/><stop stop-opacity="1" stop-color="rgb(100%, 31.036377%, 22.665405%)" offset="0.402344"/><stop stop-opacity="1" stop-color="rgb(100%, 31.317139%, 22.747803%)" offset="0.40625"/><stop stop-opacity="1" stop-color="rgb(100%, 31.596375%, 22.828674%)" offset="0.410156"/><stop stop-opacity="1" stop-color="rgb(100%, 31.877136%, 22.911072%)" offset="0.414062"/><stop stop-opacity="1" stop-color="rgb(100%, 32.156372%, 22.991943%)" offset="0.417969"/><stop stop-opacity="1" stop-color="rgb(100%, 32.437134%, 23.074341%)" offset="0.421875"/><stop stop-opacity="1" stop-color="rgb(100%, 32.71637%, 23.156738%)" offset="0.425781"/><stop stop-opacity="1" stop-color="rgb(100%, 32.997131%, 23.239136%)" offset="0.429688"/><stop stop-opacity="1" stop-color="rgb(100%, 33.276367%, 23.320007%)" offset="0.433594"/><stop stop-opacity="1" stop-color="rgb(100%, 33.557129%, 23.402405%)" offset="0.4375"/><stop stop-opacity="1" stop-color="rgb(100%, 33.836365%, 23.483276%)" offset="0.441406"/><stop stop-opacity="1" stop-color="rgb(100%, 34.117126%, 23.565674%)" offset="0.445312"/><stop stop-opacity="1" stop-color="rgb(100%, 34.397888%, 23.646545%)" offset="0.449219"/><stop stop-opacity="1" stop-color="rgb(100%, 34.67865%, 23.728943%)" offset="0.453125"/><stop stop-opacity="1" stop-color="rgb(100%, 34.957886%, 23.809814%)" offset="0.457031"/><stop stop-opacity="1" stop-color="rgb(100%, 35.238647%, 23.892212%)" offset="0.460938"/><stop stop-opacity="1" stop-color="rgb(100%, 35.517883%, 23.973083%)" offset="0.464844"/><stop stop-opacity="1" stop-color="rgb(100%, 35.798645%, 24.055481%)" offset="0.46875"/><stop stop-opacity="1" stop-color="rgb(100%, 36.077881%, 24.136353%)" offset="0.472656"/><stop stop-opacity="1" stop-color="rgb(100%, 36.358643%, 24.21875%)" offset="0.476563"/><stop stop-opacity="1" stop-color="rgb(100%, 36.637878%, 24.299622%)" offset="0.480469"/><stop stop-opacity="1" stop-color="rgb(100%, 36.91864%, 24.382019%)" offset="0.484375"/><stop stop-opacity="1" stop-color="rgb(100%, 37.197876%, 24.462891%)" offset="0.488281"/><stop stop-opacity="1" stop-color="rgb(100%, 37.478638%, 24.545288%)" offset="0.492188"/><stop stop-opacity="1" stop-color="rgb(100%, 37.757874%, 24.62616%)" offset="0.496094"/><stop stop-opacity="1" stop-color="rgb(100%, 38.038635%, 24.708557%)" offset="0.5"/><stop stop-opacity="1" stop-color="rgb(100%, 38.319397%, 24.790955%)" offset="0.503906"/><stop stop-opacity="1" stop-color="rgb(100%, 38.600159%, 24.873352%)" offset="0.507812"/><stop stop-opacity="1" stop-color="rgb(100%, 38.879395%, 24.954224%)" offset="0.511719"/><stop stop-opacity="1" stop-color="rgb(100%, 39.160156%, 25.036621%)" offset="0.515625"/><stop stop-opacity="1" stop-color="rgb(100%, 39.439392%, 25.117493%)" offset="0.519531"/><stop stop-opacity="1" stop-color="rgb(100%, 39.720154%, 25.19989%)" offset="0.523438"/><stop stop-opacity="1" stop-color="rgb(100%, 39.99939%, 25.280762%)" offset="0.527344"/><stop stop-opacity="1" stop-color="rgb(100%, 40.280151%, 25.363159%)" offset="0.53125"/><stop stop-opacity="1" stop-color="rgb(100%, 40.559387%, 25.444031%)" offset="0.535156"/><stop stop-opacity="1" stop-color="rgb(100%, 40.840149%, 25.526428%)" offset="0.539062"/><stop stop-opacity="1" stop-color="rgb(100%, 41.119385%, 25.6073%)" offset="0.542969"/><stop stop-opacity="1" stop-color="rgb(100%, 41.400146%, 25.689697%)" offset="0.546875"/><stop stop-opacity="1" stop-color="rgb(100%, 41.679382%, 25.770569%)" offset="0.550781"/><stop stop-opacity="1" stop-color="rgb(100%, 41.960144%, 25.852966%)" offset="0.554688"/><stop stop-opacity="1" stop-color="rgb(100%, 42.240906%, 25.933838%)" offset="0.558594"/><stop stop-opacity="1" stop-color="rgb(100%, 42.521667%, 26.016235%)" offset="0.5625"/><stop stop-opacity="1" stop-color="rgb(100%, 42.800903%, 26.097107%)" offset="0.566406"/><stop stop-opacity="1" stop-color="rgb(100%, 43.081665%, 26.179504%)" offset="0.570313"/><stop stop-opacity="1" stop-color="rgb(100%, 43.360901%, 26.260376%)" offset="0.574219"/><stop stop-opacity="1" stop-color="rgb(100%, 43.641663%, 26.342773%)" offset="0.578125"/><stop stop-opacity="1" stop-color="rgb(100%, 43.920898%, 26.425171%)" offset="0.582031"/><stop stop-opacity="1" stop-color="rgb(100%, 44.20166%, 26.507568%)" offset="0.585938"/><stop stop-opacity="1" stop-color="rgb(100%, 44.480896%, 26.58844%)" offset="0.589844"/><stop stop-opacity="1" stop-color="rgb(100%, 44.761658%, 26.670837%)" offset="0.59375"/><stop stop-opacity="1" stop-color="rgb(100%, 45.040894%, 26.751709%)" offset="0.597656"/><stop stop-opacity="1" stop-color="rgb(100%, 45.321655%, 26.834106%)" offset="0.601562"/><stop stop-opacity="1" stop-color="rgb(100%, 45.600891%, 26.914978%)" offset="0.605469"/><stop stop-opacity="1" stop-color="rgb(100%, 45.881653%, 26.997375%)" offset="0.609375"/><stop stop-opacity="1" stop-color="rgb(100%, 46.162415%, 27.078247%)" offset="0.613281"/><stop stop-opacity="1" stop-color="rgb(100%, 46.443176%, 27.160645%)" offset="0.617188"/><stop stop-opacity="1" stop-color="rgb(100%, 46.722412%, 27.241516%)" offset="0.621094"/><stop stop-opacity="1" stop-color="rgb(100%, 47.003174%, 27.323914%)" offset="0.625"/><stop stop-opacity="1" stop-color="rgb(100%, 47.28241%, 27.404785%)" offset="0.628906"/><stop stop-opacity="1" stop-color="rgb(100%, 47.563171%, 27.487183%)" offset="0.632812"/><stop stop-opacity="1" stop-color="rgb(100%, 47.842407%, 27.568054%)" offset="0.636719"/><stop stop-opacity="1" stop-color="rgb(100%, 48.123169%, 27.650452%)" offset="0.640625"/><stop stop-opacity="1" stop-color="rgb(100%, 48.402405%, 27.731323%)" offset="0.644531"/><stop stop-opacity="1" stop-color="rgb(100%, 48.683167%, 27.813721%)" offset="0.648438"/><stop stop-opacity="1" stop-color="rgb(100%, 48.962402%, 27.894592%)" offset="0.652344"/><stop stop-opacity="1" stop-color="rgb(100%, 49.243164%, 27.97699%)" offset="0.65625"/><stop stop-opacity="1" stop-color="rgb(100%, 49.523926%, 28.059387%)" offset="0.660156"/><stop stop-opacity="1" stop-color="rgb(100%, 49.804688%, 28.141785%)" offset="0.664062"/><stop stop-opacity="1" stop-color="rgb(100%, 50.083923%, 28.222656%)" offset="0.667969"/><stop stop-opacity="1" stop-color="rgb(100%, 50.364685%, 28.305054%)" offset="0.671875"/><stop stop-opacity="1" stop-color="rgb(100%, 50.643921%, 28.385925%)" offset="0.675781"/><stop stop-opacity="1" stop-color="rgb(100%, 50.924683%, 28.468323%)" offset="0.679688"/><stop stop-opacity="1" stop-color="rgb(100%, 51.203918%, 28.549194%)" offset="0.683594"/><stop stop-opacity="1" stop-color="rgb(100%, 51.48468%, 28.631592%)" offset="0.6875"/><stop stop-opacity="1" stop-color="rgb(100%, 51.763916%, 28.712463%)" offset="0.691406"/><stop stop-opacity="1" stop-color="rgb(100%, 52.044678%, 28.794861%)" offset="0.695312"/><stop stop-opacity="1" stop-color="rgb(100%, 52.323914%, 28.875732%)" offset="0.699219"/><stop stop-opacity="1" stop-color="rgb(100%, 52.604675%, 28.95813%)" offset="0.703125"/><stop stop-opacity="1" stop-color="rgb(100%, 52.883911%, 29.039001%)" offset="0.707031"/><stop stop-opacity="1" stop-color="rgb(100%, 53.164673%, 29.121399%)" offset="0.710938"/><stop stop-opacity="1" stop-color="rgb(100%, 53.445435%, 29.202271%)" offset="0.714844"/><stop stop-opacity="1" stop-color="rgb(100%, 53.726196%, 29.284668%)" offset="0.71875"/><stop stop-opacity="1" stop-color="rgb(100%, 54.005432%, 29.36554%)" offset="0.722656"/><stop stop-opacity="1" stop-color="rgb(100%, 54.286194%, 29.447937%)" offset="0.726562"/><stop stop-opacity="1" stop-color="rgb(100%, 54.56543%, 29.528809%)" offset="0.730469"/><stop stop-opacity="1" stop-color="rgb(100%, 54.846191%, 29.611206%)" offset="0.734375"/><stop stop-opacity="1" stop-color="rgb(100%, 55.125427%, 29.693604%)" offset="0.738281"/><stop stop-opacity="1" stop-color="rgb(100%, 55.406189%, 29.776001%)" offset="0.742188"/><stop stop-opacity="1" stop-color="rgb(100%, 55.685425%, 29.856873%)" offset="0.746094"/><stop stop-opacity="1" stop-color="rgb(100%, 55.966187%, 29.93927%)" offset="0.75"/><stop stop-opacity="1" stop-color="rgb(100%, 56.245422%, 30.020142%)" offset="0.753906"/><stop stop-opacity="1" stop-color="rgb(100%, 56.526184%, 30.102539%)" offset="0.757812"/><stop stop-opacity="1" stop-color="rgb(100%, 56.692505%, 30.149841%)" offset="0.765625"/><stop stop-opacity="1" stop-color="rgb(100%, 56.858826%, 30.198669%)" offset="0.78125"/><stop stop-opacity="1" stop-color="rgb(100%, 56.858826%, 30.198669%)" offset="0.8125"/><stop stop-opacity="1" stop-color="rgb(100%, 56.858826%, 30.198669%)" offset="0.875"/><stop stop-opacity="1" stop-color="rgb(100%, 56.858826%, 30.198669%)" offset="1"/></linearGradient><clipPath id="38d330fb48"><rect x="0" width="1500" y="0" height="905"/></clipPath><clipPath id="ae3e612a15"><path d="M 0 0.296875 L 1500 0.296875 L 1500 905 L 0 905 Z M 0 0.296875 " clip-rule="nonzero"/></clipPath><clipPath id="509ca05dd1"><rect x="0" width="1500" y="0" height="905"/></clipPath><clipPath id="fdcb974b10"><rect x="0" width="1500" y="0" height="905"/></clipPath><mask id="07c38df989"><g filter="url(#7d8ac5689d)"><g transform="matrix(1, 0, 0, 1, 0, 0.000000000000113687)"><g clip-path="url(#fdcb974b10)"><g clip-path="url(#ae3e612a15)"><g transform="matrix(1, 0, 0, 1, 0, 0.000000000000113687)"><g clip-path="url(#509ca05dd1)"><g fill="#000000" fill-opacity="1"><g transform="translate(352.295849, 516.29551)"><g><path d="M 98.375 -60.359375 L 128.828125 -7.5625 C 129.523438 -6.738281 129.757812 -5.390625 129.53125 -3.515625 C 129.289062 -1.054688 127.941406 0.171875 125.484375 0.171875 L 106.46875 0.171875 C 104.707031 0.171875 103.476562 -0.175781 102.78125 -0.875 C 102.070312 -1.46875 101.425781 -2.289062 100.84375 -3.34375 L 73.390625 -51.5625 C 71.503906 -55.082031 69.566406 -57.367188 67.578125 -58.421875 C 65.585938 -59.597656 62.421875 -60.1875 58.078125 -60.1875 L 40.296875 -60.1875 L 40.296875 -5.984375 C 40.296875 -3.285156 39.648438 -1.582031 38.359375 -0.875 C 37.066406 -0.175781 36.070312 0.171875 35.375 0.171875 L 19.1875 0.171875 C 18.476562 0.171875 17.445312 -0.175781 16.09375 -0.875 C 14.75 -1.582031 14.078125 -3.285156 14.078125 -5.984375 L 14.078125 -138.859375 C 14.078125 -141.671875 14.75 -143.398438 16.09375 -144.046875 C 17.445312 -144.691406 18.476562 -145.015625 19.1875 -145.015625 L 35.375 -145.015625 C 36.070312 -145.015625 37.066406 -144.691406 38.359375 -144.046875 C 39.648438 -143.398438 40.296875 -141.671875 40.296875 -138.859375 L 40.296875 -86.234375 L 56.484375 -86.234375 C 57.660156 -86.234375 58.71875 -86.257812 59.65625 -86.3125 C 60.59375 -86.375 61.414062 -86.460938 62.125 -86.578125 C 63.53125 -86.816406 64.757812 -87.171875 65.8125 -87.640625 C 66.875 -88.222656 67.816406 -89.046875 68.640625 -90.109375 C 69.109375 -90.691406 69.601562 -91.363281 70.125 -92.125 C 70.65625 -92.882812 71.15625 -93.675781 71.625 -94.5 L 98.203125 -141.484375 C 98.671875 -142.429688 99.316406 -143.253906 100.140625 -143.953125 C 100.835938 -144.660156 102.125 -145.015625 104 -145.015625 L 121.421875 -145.015625 C 123.535156 -145.015625 124.890625 -144.015625 125.484375 -142.015625 C 125.710938 -140.492188 125.535156 -139.085938 124.953125 -137.796875 L 95.90625 -86.765625 C 94.144531 -83.828125 92.5625 -81.1875 91.15625 -78.84375 C 90.570312 -78.019531 90.015625 -77.226562 89.484375 -76.46875 C 88.960938 -75.707031 88.40625 -74.972656 87.8125 -74.265625 C 89.570312 -72.617188 91.332031 -70.625 93.09375 -68.28125 C 94.851562 -65.9375 96.613281 -63.296875 98.375 -60.359375 Z M 98.375 -60.359375 "/></g></g></g><g fill="#000000" fill-opacity="1"><g transform="translate(487.260728, 516.29551)"><g><path d="M 108.40625 -128.640625 L 157.859375 -6.6875 C 158.554688 -5.039062 158.734375 -3.632812 158.390625 -2.46875 C 158.265625 -2 157.9375 -1.441406 157.40625 -0.796875 C 156.882812 -0.148438 155.921875 0.171875 154.515625 0.171875 L 135.6875 0.171875 C 133.21875 0.171875 131.515625 -1.117188 130.578125 -3.703125 L 86.9375 -112.625 C 86.820312 -112.863281 86.765625 -112.984375 86.765625 -112.984375 L 86.0625 -112.984375 C 86.0625 -112.984375 86.03125 -112.953125 85.96875 -112.890625 C 85.90625 -112.835938 85.816406 -112.691406 85.703125 -112.453125 L 63.171875 -55.4375 L 85 -55.4375 C 87.46875 -55.4375 89.171875 -54.265625 90.109375 -51.921875 L 96.4375 -36.25 C 97.019531 -34.257812 96.785156 -32.5625 95.734375 -31.15625 C 94.796875 -29.507812 93.269531 -28.6875 91.15625 -28.6875 L 52.625 -28.6875 L 42.59375 -3.515625 C 41.65625 -1.054688 40.007812 0.171875 37.65625 0.171875 L 18.296875 0.171875 C 16.890625 0.171875 15.921875 -0.148438 15.390625 -0.796875 C 14.867188 -1.441406 14.550781 -2 14.4375 -2.46875 C 14.082031 -3.519531 14.195312 -4.925781 14.78125 -6.6875 L 63.875 -128.640625 C 66.226562 -134.859375 68.8125 -139.140625 71.625 -141.484375 C 71.976562 -141.722656 72.390625 -142.019531 72.859375 -142.375 C 73.328125 -142.726562 73.796875 -143.019531 74.265625 -143.25 C 77.785156 -145.71875 81.832031 -146.953125 86.40625 -146.953125 C 91.21875 -146.953125 95.554688 -145.484375 99.421875 -142.546875 C 103.296875 -139.609375 105.9375 -135.851562 107.34375 -131.28125 C 107.582031 -130.925781 107.789062 -130.515625 107.96875 -130.046875 C 108.144531 -129.578125 108.289062 -129.109375 108.40625 -128.640625 Z M 108.40625 -128.640625 "/></g></g></g><g fill="#000000" fill-opacity="1"><g transform="translate(651.260454, 516.29551)"><g><path d="M 115.625 -26.046875 C 116.445312 -26.046875 117.472656 -25.691406 118.703125 -24.984375 C 119.929688 -24.285156 120.546875 -22.585938 120.546875 -19.890625 L 120.546875 -5.984375 C 120.546875 -3.285156 119.929688 -1.582031 118.703125 -0.875 C 117.472656 -0.175781 116.445312 0.171875 115.625 0.171875 L 57.546875 0.171875 C 49.804688 0.171875 43.238281 -0.820312 37.84375 -2.8125 C 32.320312 -4.6875 27.742188 -7.972656 24.109375 -12.671875 C 20.703125 -16.890625 18.179688 -22.640625 16.546875 -29.921875 C 14.898438 -37.078125 14.078125 -45.460938 14.078125 -55.078125 L 14.078125 -138.859375 C 14.078125 -141.671875 14.722656 -143.398438 16.015625 -144.046875 C 17.304688 -144.691406 18.363281 -145.015625 19.1875 -145.015625 L 35.375 -145.015625 C 36.070312 -145.015625 37.066406 -144.691406 38.359375 -144.046875 C 39.648438 -143.398438 40.296875 -141.671875 40.296875 -138.859375 L 40.296875 -52.09375 C 40.296875 -49.507812 40.351562 -47.101562 40.46875 -44.875 C 40.59375 -42.644531 40.832031 -40.648438 41.1875 -38.890625 C 41.65625 -35.722656 42.648438 -33.144531 44.171875 -31.15625 C 45.347656 -29.269531 47.050781 -27.976562 49.28125 -27.28125 C 51.625 -26.457031 54.671875 -26.046875 58.421875 -26.046875 Z M 115.625 -26.046875 "/></g></g></g><g fill="#000000" fill-opacity="1"><g transform="translate(777.074956, 516.29551)"><g><path d="M 35.203125 -145.015625 C 35.898438 -145.015625 36.894531 -144.660156 38.1875 -143.953125 C 39.476562 -143.253906 40.125 -141.554688 40.125 -138.859375 L 40.125 -5.984375 C 40.125 -3.285156 39.476562 -1.582031 38.1875 -0.875 C 36.894531 -0.175781 35.898438 0.171875 35.203125 0.171875 L 19 0.171875 C 18.300781 0.171875 17.304688 -0.175781 16.015625 -0.875 C 14.722656 -1.582031 14.078125 -3.285156 14.078125 -5.984375 L 14.078125 -138.859375 C 14.078125 -141.554688 14.722656 -143.253906 16.015625 -143.953125 C 17.304688 -144.660156 18.300781 -145.015625 19 -145.015625 Z M 35.203125 -145.015625 "/></g></g></g><g fill="#000000" fill-opacity="1"><g transform="translate(822.471833, 516.29551)"><g><path d="M 134.09375 -102.953125 L 134.09375 -101.890625 C 134.09375 -102.015625 134.09375 -102.101562 134.09375 -102.15625 C 134.09375 -102.21875 134.09375 -102.304688 134.09375 -102.421875 C 134.09375 -102.535156 134.09375 -102.625 134.09375 -102.6875 C 134.09375 -102.75 134.09375 -102.835938 134.09375 -102.953125 Z M 137.4375 -7.5625 C 138.144531 -6.625 138.378906 -5.21875 138.140625 -3.34375 C 137.796875 -1 136.445312 0.171875 134.09375 0.171875 L 114.734375 0.171875 C 113.210938 0.171875 111.984375 -0.175781 111.046875 -0.875 C 110.691406 -1.113281 110.367188 -1.46875 110.078125 -1.9375 C 109.785156 -2.40625 109.460938 -2.875 109.109375 -3.34375 L 77.25 -59.828125 L 40.125 -59.828125 L 40.125 -5.984375 C 40.125 -3.285156 39.503906 -1.582031 38.265625 -0.875 C 37.035156 -0.175781 36.015625 0.171875 35.203125 0.171875 L 19.1875 0.171875 C 18.363281 0.171875 17.304688 -0.175781 16.015625 -0.875 C 14.722656 -1.582031 14.078125 -3.285156 14.078125 -5.984375 L 14.078125 -79.890625 C 14.078125 -82.585938 14.722656 -84.257812 16.015625 -84.90625 C 17.304688 -85.550781 18.363281 -85.875 19.1875 -85.875 L 95.734375 -85.875 C 100.191406 -85.875 103.300781 -87.164062 105.0625 -89.75 C 106.9375 -92.332031 107.875 -96.554688 107.875 -102.421875 C 107.875 -108.285156 106.9375 -112.507812 105.0625 -115.09375 C 103.300781 -117.675781 100.191406 -118.96875 95.734375 -118.96875 L 19.1875 -118.96875 C 18.363281 -118.96875 17.304688 -119.289062 16.015625 -119.9375 C 14.722656 -120.582031 14.078125 -122.253906 14.078125 -124.953125 L 14.078125 -138.859375 C 14.078125 -141.671875 14.722656 -143.398438 16.015625 -144.046875 C 17.304688 -144.691406 18.363281 -145.015625 19.1875 -145.015625 L 100.3125 -145.015625 C 112.394531 -145.015625 121.078125 -141.257812 126.359375 -133.75 C 131.398438 -126.476562 133.976562 -116.035156 134.09375 -102.421875 C 133.976562 -88.816406 131.398438 -78.375 126.359375 -71.09375 C 121.898438 -65 115.328125 -61.421875 106.640625 -60.359375 Z M 137.4375 -7.5625 "/></g></g></g><g fill="#000000" fill-opacity="1"><g transform="translate(966.059192, 516.29551)"><g><path d="M 108.40625 -128.640625 L 157.859375 -6.6875 C 158.554688 -5.039062 158.734375 -3.632812 158.390625 -2.46875 C 158.265625 -2 157.9375 -1.441406 157.40625 -0.796875 C 156.882812 -0.148438 155.921875 0.171875 154.515625 0.171875 L 135.6875 0.171875 C 133.21875 0.171875 131.515625 -1.117188 130.578125 -3.703125 L 86.9375 -112.625 C 86.820312 -112.863281 86.765625 -112.984375 86.765625 -112.984375 L 86.0625 -112.984375 C 86.0625 -112.984375 86.03125 -112.953125 85.96875 -112.890625 C 85.90625 -112.835938 85.816406 -112.691406 85.703125 -112.453125 L 63.171875 -55.4375 L 85 -55.4375 C 87.46875 -55.4375 89.171875 -54.265625 90.109375 -51.921875 L 96.4375 -36.25 C 97.019531 -34.257812 96.785156 -32.5625 95.734375 -31.15625 C 94.796875 -29.507812 93.269531 -28.6875 91.15625 -28.6875 L 52.625 -28.6875 L 42.59375 -3.515625 C 41.65625 -1.054688 40.007812 0.171875 37.65625 0.171875 L 18.296875 0.171875 C 16.890625 0.171875 15.921875 -0.148438 15.390625 -0.796875 C 14.867188 -1.441406 14.550781 -2 14.4375 -2.46875 C 14.082031 -3.519531 14.195312 -4.925781 14.78125 -6.6875 L 63.875 -128.640625 C 66.226562 -134.859375 68.8125 -139.140625 71.625 -141.484375 C 71.976562 -141.722656 72.390625 -142.019531 72.859375 -142.375 C 73.328125 -142.726562 73.796875 -143.019531 74.265625 -143.25 C 77.785156 -145.71875 81.832031 -146.953125 86.40625 -146.953125 C 91.21875 -146.953125 95.554688 -145.484375 99.421875 -142.546875 C 103.296875 -139.609375 105.9375 -135.851562 107.34375 -131.28125 C 107.582031 -130.925781 107.789062 -130.515625 107.96875 -130.046875 C 108.144531 -129.578125 108.289062 -129.109375 108.40625 -128.640625 Z M 108.40625 -128.640625 "/></g></g></g></g></g></g></g></g></g></mask><clipPath id="5b8ba908bb"><path d="M 0.601562 33.296875 L 1482.582031 33.296875 L 1482.582031 905 L 0.601562 905 Z M 0.601562 33.296875 " clip-rule="nonzero"/></clipPath><clipPath id="545b4ca382"><rect x="0" width="1500" y="0" height="905"/></clipPath><clipPath id="cc3e86a579"><rect x="0" width="1500" y="0" height="905"/></clipPath><clipPath id="536012ac98"><rect x="0" width="1500" y="0" height="908"/></clipPath><clipPath id="ca526d3b05"><rect x="0" width="1500" y="0" height="908"/></clipPath></defs><rect x="-150" width="1800" fill="none" y="-149.999993" height="1799.99992" fill-opacity="1"/><rect x="-150" width="1800" fill="none" y="-149.999993" height="1799.99992" fill-opacity="1"/><path fill="#ff751f" d="M 1010.003906 842.722656 L 890.882812 636.441406 L 838.363281 727.511719 L 931.109375 888.203125 C 939.492188 902.730469 954.800781 911 970.558594 911 C 978.265625 911 986.089844 908.988281 993.242188 904.855469 C 1015.144531 892.226562 1022.519531 864.511719 1010.003906 842.722656 Z M 1010.003906 842.722656 " fill-opacity="1" fill-rule="nonzero"/><g clip-path="url(#4861ea0156)"><path fill="#ff751f" d="M 926.417969 523.128906 L 875.910156 610.628906 L 823.277344 701.699219 L 741.925781 842.609375 C 717.566406 884.851562 672.085938 911.113281 623.363281 911.113281 C 573.859375 911.113281 529.496094 885.523438 504.691406 842.609375 C 479.882812 799.8125 479.882812 748.523438 504.691406 705.609375 L 647.054688 459.210938 C 661.804688 433.621094 688.289062 418.3125 717.789062 418.3125 C 747.289062 418.3125 773.773438 433.621094 788.636719 459.210938 L 793.777344 468.152344 L 808.527344 493.628906 L 755.894531 584.703125 L 717.789062 518.773438 L 583.695312 751.089844 C 571.738281 771.765625 579.671875 790.089844 583.695312 797.019531 C 587.714844 803.949219 599.5625 820.039062 623.476562 820.039062 C 639.789062 820.039062 655.097656 811.210938 663.144531 797.019531 L 770.753906 610.628906 L 823.386719 519.554688 L 847.523438 477.648438 C 860.152344 455.859375 887.976562 448.371094 909.765625 461 C 931.558594 473.515625 939.042969 501.339844 926.417969 523.128906 Z M 926.417969 523.128906 " fill-opacity="1" fill-rule="nonzero"/></g><path fill="#ff751f" d="M 904.292969 414.960938 C 928.652344 469.828125 1009.890625 436.191406 988.4375 380.097656 C 963.964844 325.339844 882.726562 358.976562 904.292969 414.960938 Z M 904.292969 414.960938 " fill-opacity="1" fill-rule="nonzero"/><g mask="url(#2b621cc714)"><g transform="matrix(1, 0, 0, 1, 0, 592)"><g clip-path="url(#ca526d3b05)"><g clip-path="url(#34e0c1d06a)"><g transform="matrix(1, 0, 0, 1, 0, 0.000000000000113687)"><g clip-path="url(#536012ac98)"><g clip-path="url(#e339ebc2ef)"><g transform="matrix(1, 0, 0, 1, 0, 3)"><g clip-path="url(#cc3e86a579)"><g clip-path="url(#34bb5b9c3b)"><g mask="url(#07c38df989)"><g transform="matrix(1, 0, 0, 1, 0, 0.000000000000113687)"><g clip-path="url(#545b4ca382)"><g clip-path="url(#5b8ba908bb)"><path fill="url(#f7005933f1)" d="M 0.601562 33.296875 L 0.601562 905 L 1482.582031 905 L 1482.582031 33.296875 Z M 0.601562 33.296875 " fill-rule="nonzero"/></g></g></g></g></g></g></g></g></g></g></g></g></g></g></svg>